<?xml version="1.0" encoding="utf-8" standalone="no"?>
<!DOCTYPE svg PUBLIC "-//W3C//DTD SVG 1.1//EN"
  "http://www.w3.org/Graphics/SVG/1.1/DTD/svg11.dtd">
<svg xmlns:xlink="http://www.w3.org/1999/xlink" width="1080pt" height="432pt" viewBox="0 0 1080 432" xmlns="http://www.w3.org/2000/svg" version="1.1">
 <metadata>
  <rdf:RDF xmlns:dc="http://purl.org/dc/elements/1.1/" xmlns:cc="http://creativecommons.org/ns#" xmlns:rdf="http://www.w3.org/1999/02/22-rdf-syntax-ns#">
   <cc:Work>
    <dc:type rdf:resource="http://purl.org/dc/dcmitype/StillImage"/>
    <dc:date>2022-10-31T00:14:52.904734</dc:date>
    <dc:format>image/svg+xml</dc:format>
    <dc:creator>
     <cc:Agent>
      <dc:title>Matplotlib v3.5.1, https://matplotlib.org/</dc:title>
     </cc:Agent>
    </dc:creator>
   </cc:Work>
  </rdf:RDF>
 </metadata>
 <defs>
  <style type="text/css">*{stroke-linejoin: round; stroke-linecap: butt}</style>
 </defs>
 <g id="figure_1">
  <g id="patch_1">
   <path d="M 0 432 
L 1080 432 
L 1080 0 
L 0 0 
L 0 432 
z
" style="fill: none"/>
  </g>
  <g id="axes_1">
   <g id="patch_2">
    <path d="M 135 378 
L 515.454545 378 
L 515.454545 51.84 
L 135 51.84 
z
" style="fill: #ffffff"/>
   </g>
   <g id="matplotlib.axis_1">
    <g id="xtick_1">
     <g id="line2d_1">
      <defs>
       <path id="mc9963612a9" d="M 0 0 
L 0 3.5 
" style="stroke: #000000; stroke-width: 0.8"/>
      </defs>
      <g>
       <use xlink:href="#mc9963612a9" x="135" y="378" style="stroke: #000000; stroke-width: 0.8"/>
      </g>
     </g>
     <g id="text_1">
      <!-- 0 -->
      <g transform="translate(131.81875 392.598437)scale(0.1 -0.1)">
       <defs>
        <path id="DejaVuSans-30" d="M 2034 4250 
Q 1547 4250 1301 3770 
Q 1056 3291 1056 2328 
Q 1056 1369 1301 889 
Q 1547 409 2034 409 
Q 2525 409 2770 889 
Q 3016 1369 3016 2328 
Q 3016 3291 2770 3770 
Q 2525 4250 2034 4250 
z
M 2034 4750 
Q 2819 4750 3233 4129 
Q 3647 3509 3647 2328 
Q 3647 1150 3233 529 
Q 2819 -91 2034 -91 
Q 1250 -91 836 529 
Q 422 1150 422 2328 
Q 422 3509 836 4129 
Q 1250 4750 2034 4750 
z
" transform="scale(0.015625)"/>
       </defs>
       <use xlink:href="#DejaVuSans-30"/>
      </g>
     </g>
    </g>
    <g id="xtick_2">
     <g id="line2d_2">
      <g>
       <use xlink:href="#mc9963612a9" x="211.090909" y="378" style="stroke: #000000; stroke-width: 0.8"/>
      </g>
     </g>
     <g id="text_2">
      <!-- 200 -->
      <g transform="translate(201.547159 392.598437)scale(0.1 -0.1)">
       <defs>
        <path id="DejaVuSans-32" d="M 1228 531 
L 3431 531 
L 3431 0 
L 469 0 
L 469 531 
Q 828 903 1448 1529 
Q 2069 2156 2228 2338 
Q 2531 2678 2651 2914 
Q 2772 3150 2772 3378 
Q 2772 3750 2511 3984 
Q 2250 4219 1831 4219 
Q 1534 4219 1204 4116 
Q 875 4013 500 3803 
L 500 4441 
Q 881 4594 1212 4672 
Q 1544 4750 1819 4750 
Q 2544 4750 2975 4387 
Q 3406 4025 3406 3419 
Q 3406 3131 3298 2873 
Q 3191 2616 2906 2266 
Q 2828 2175 2409 1742 
Q 1991 1309 1228 531 
z
" transform="scale(0.015625)"/>
       </defs>
       <use xlink:href="#DejaVuSans-32"/>
       <use xlink:href="#DejaVuSans-30" x="63.623047"/>
       <use xlink:href="#DejaVuSans-30" x="127.246094"/>
      </g>
     </g>
    </g>
    <g id="xtick_3">
     <g id="line2d_3">
      <g>
       <use xlink:href="#mc9963612a9" x="287.181818" y="378" style="stroke: #000000; stroke-width: 0.8"/>
      </g>
     </g>
     <g id="text_3">
      <!-- 400 -->
      <g transform="translate(277.638068 392.598437)scale(0.1 -0.1)">
       <defs>
        <path id="DejaVuSans-34" d="M 2419 4116 
L 825 1625 
L 2419 1625 
L 2419 4116 
z
M 2253 4666 
L 3047 4666 
L 3047 1625 
L 3713 1625 
L 3713 1100 
L 3047 1100 
L 3047 0 
L 2419 0 
L 2419 1100 
L 313 1100 
L 313 1709 
L 2253 4666 
z
" transform="scale(0.015625)"/>
       </defs>
       <use xlink:href="#DejaVuSans-34"/>
       <use xlink:href="#DejaVuSans-30" x="63.623047"/>
       <use xlink:href="#DejaVuSans-30" x="127.246094"/>
      </g>
     </g>
    </g>
    <g id="xtick_4">
     <g id="line2d_4">
      <g>
       <use xlink:href="#mc9963612a9" x="363.272727" y="378" style="stroke: #000000; stroke-width: 0.8"/>
      </g>
     </g>
     <g id="text_4">
      <!-- 600 -->
      <g transform="translate(353.728977 392.598437)scale(0.1 -0.1)">
       <defs>
        <path id="DejaVuSans-36" d="M 2113 2584 
Q 1688 2584 1439 2293 
Q 1191 2003 1191 1497 
Q 1191 994 1439 701 
Q 1688 409 2113 409 
Q 2538 409 2786 701 
Q 3034 994 3034 1497 
Q 3034 2003 2786 2293 
Q 2538 2584 2113 2584 
z
M 3366 4563 
L 3366 3988 
Q 3128 4100 2886 4159 
Q 2644 4219 2406 4219 
Q 1781 4219 1451 3797 
Q 1122 3375 1075 2522 
Q 1259 2794 1537 2939 
Q 1816 3084 2150 3084 
Q 2853 3084 3261 2657 
Q 3669 2231 3669 1497 
Q 3669 778 3244 343 
Q 2819 -91 2113 -91 
Q 1303 -91 875 529 
Q 447 1150 447 2328 
Q 447 3434 972 4092 
Q 1497 4750 2381 4750 
Q 2619 4750 2861 4703 
Q 3103 4656 3366 4563 
z
" transform="scale(0.015625)"/>
       </defs>
       <use xlink:href="#DejaVuSans-36"/>
       <use xlink:href="#DejaVuSans-30" x="63.623047"/>
       <use xlink:href="#DejaVuSans-30" x="127.246094"/>
      </g>
     </g>
    </g>
    <g id="xtick_5">
     <g id="line2d_5">
      <g>
       <use xlink:href="#mc9963612a9" x="439.363636" y="378" style="stroke: #000000; stroke-width: 0.8"/>
      </g>
     </g>
     <g id="text_5">
      <!-- 800 -->
      <g transform="translate(429.819886 392.598437)scale(0.1 -0.1)">
       <defs>
        <path id="DejaVuSans-38" d="M 2034 2216 
Q 1584 2216 1326 1975 
Q 1069 1734 1069 1313 
Q 1069 891 1326 650 
Q 1584 409 2034 409 
Q 2484 409 2743 651 
Q 3003 894 3003 1313 
Q 3003 1734 2745 1975 
Q 2488 2216 2034 2216 
z
M 1403 2484 
Q 997 2584 770 2862 
Q 544 3141 544 3541 
Q 544 4100 942 4425 
Q 1341 4750 2034 4750 
Q 2731 4750 3128 4425 
Q 3525 4100 3525 3541 
Q 3525 3141 3298 2862 
Q 3072 2584 2669 2484 
Q 3125 2378 3379 2068 
Q 3634 1759 3634 1313 
Q 3634 634 3220 271 
Q 2806 -91 2034 -91 
Q 1263 -91 848 271 
Q 434 634 434 1313 
Q 434 1759 690 2068 
Q 947 2378 1403 2484 
z
M 1172 3481 
Q 1172 3119 1398 2916 
Q 1625 2713 2034 2713 
Q 2441 2713 2670 2916 
Q 2900 3119 2900 3481 
Q 2900 3844 2670 4047 
Q 2441 4250 2034 4250 
Q 1625 4250 1398 4047 
Q 1172 3844 1172 3481 
z
" transform="scale(0.015625)"/>
       </defs>
       <use xlink:href="#DejaVuSans-38"/>
       <use xlink:href="#DejaVuSans-30" x="63.623047"/>
       <use xlink:href="#DejaVuSans-30" x="127.246094"/>
      </g>
     </g>
    </g>
    <g id="xtick_6">
     <g id="line2d_6">
      <g>
       <use xlink:href="#mc9963612a9" x="515.454545" y="378" style="stroke: #000000; stroke-width: 0.8"/>
      </g>
     </g>
     <g id="text_6">
      <!-- 1000 -->
      <g transform="translate(502.729545 392.598437)scale(0.1 -0.1)">
       <defs>
        <path id="DejaVuSans-31" d="M 794 531 
L 1825 531 
L 1825 4091 
L 703 3866 
L 703 4441 
L 1819 4666 
L 2450 4666 
L 2450 531 
L 3481 531 
L 3481 0 
L 794 0 
L 794 531 
z
" transform="scale(0.015625)"/>
       </defs>
       <use xlink:href="#DejaVuSans-31"/>
       <use xlink:href="#DejaVuSans-30" x="63.623047"/>
       <use xlink:href="#DejaVuSans-30" x="127.246094"/>
       <use xlink:href="#DejaVuSans-30" x="190.869141"/>
      </g>
     </g>
    </g>
    <g id="text_7">
     <!-- deg -->
     <g transform="translate(315.802273 406.276563)scale(0.1 -0.1)">
      <defs>
       <path id="DejaVuSans-64" d="M 2906 2969 
L 2906 4863 
L 3481 4863 
L 3481 0 
L 2906 0 
L 2906 525 
Q 2725 213 2448 61 
Q 2172 -91 1784 -91 
Q 1150 -91 751 415 
Q 353 922 353 1747 
Q 353 2572 751 3078 
Q 1150 3584 1784 3584 
Q 2172 3584 2448 3432 
Q 2725 3281 2906 2969 
z
M 947 1747 
Q 947 1113 1208 752 
Q 1469 391 1925 391 
Q 2381 391 2643 752 
Q 2906 1113 2906 1747 
Q 2906 2381 2643 2742 
Q 2381 3103 1925 3103 
Q 1469 3103 1208 2742 
Q 947 2381 947 1747 
z
" transform="scale(0.015625)"/>
       <path id="DejaVuSans-65" d="M 3597 1894 
L 3597 1613 
L 953 1613 
Q 991 1019 1311 708 
Q 1631 397 2203 397 
Q 2534 397 2845 478 
Q 3156 559 3463 722 
L 3463 178 
Q 3153 47 2828 -22 
Q 2503 -91 2169 -91 
Q 1331 -91 842 396 
Q 353 884 353 1716 
Q 353 2575 817 3079 
Q 1281 3584 2069 3584 
Q 2775 3584 3186 3129 
Q 3597 2675 3597 1894 
z
M 3022 2063 
Q 3016 2534 2758 2815 
Q 2500 3097 2075 3097 
Q 1594 3097 1305 2825 
Q 1016 2553 972 2059 
L 3022 2063 
z
" transform="scale(0.015625)"/>
       <path id="DejaVuSans-67" d="M 2906 1791 
Q 2906 2416 2648 2759 
Q 2391 3103 1925 3103 
Q 1463 3103 1205 2759 
Q 947 2416 947 1791 
Q 947 1169 1205 825 
Q 1463 481 1925 481 
Q 2391 481 2648 825 
Q 2906 1169 2906 1791 
z
M 3481 434 
Q 3481 -459 3084 -895 
Q 2688 -1331 1869 -1331 
Q 1566 -1331 1297 -1286 
Q 1028 -1241 775 -1147 
L 775 -588 
Q 1028 -725 1275 -790 
Q 1522 -856 1778 -856 
Q 2344 -856 2625 -561 
Q 2906 -266 2906 331 
L 2906 616 
Q 2728 306 2450 153 
Q 2172 0 1784 0 
Q 1141 0 747 490 
Q 353 981 353 1791 
Q 353 2603 747 3093 
Q 1141 3584 1784 3584 
Q 2172 3584 2450 3431 
Q 2728 3278 2906 2969 
L 2906 3500 
L 3481 3500 
L 3481 434 
z
" transform="scale(0.015625)"/>
      </defs>
      <use xlink:href="#DejaVuSans-64"/>
      <use xlink:href="#DejaVuSans-65" x="63.476562"/>
      <use xlink:href="#DejaVuSans-67" x="125"/>
     </g>
    </g>
   </g>
   <g id="matplotlib.axis_2">
    <g id="ytick_1">
     <g id="line2d_7">
      <defs>
       <path id="m402f66a5fb" d="M 0 0 
L -3.5 0 
" style="stroke: #000000; stroke-width: 0.8"/>
      </defs>
      <g>
       <use xlink:href="#m402f66a5fb" x="135" y="363.174545" style="stroke: #000000; stroke-width: 0.8"/>
      </g>
     </g>
     <g id="text_8">
      <!-- 0 -->
      <g transform="translate(121.6375 366.973764)scale(0.1 -0.1)">
       <use xlink:href="#DejaVuSans-30"/>
      </g>
     </g>
    </g>
    <g id="ytick_2">
     <g id="line2d_8">
      <g>
       <use xlink:href="#m402f66a5fb" x="135" y="297.107457" style="stroke: #000000; stroke-width: 0.8"/>
      </g>
     </g>
     <g id="text_9">
      <!-- 500 -->
      <g transform="translate(108.9125 300.906676)scale(0.1 -0.1)">
       <defs>
        <path id="DejaVuSans-35" d="M 691 4666 
L 3169 4666 
L 3169 4134 
L 1269 4134 
L 1269 2991 
Q 1406 3038 1543 3061 
Q 1681 3084 1819 3084 
Q 2600 3084 3056 2656 
Q 3513 2228 3513 1497 
Q 3513 744 3044 326 
Q 2575 -91 1722 -91 
Q 1428 -91 1123 -41 
Q 819 9 494 109 
L 494 744 
Q 775 591 1075 516 
Q 1375 441 1709 441 
Q 2250 441 2565 725 
Q 2881 1009 2881 1497 
Q 2881 1984 2565 2268 
Q 2250 2553 1709 2553 
Q 1456 2553 1204 2497 
Q 953 2441 691 2322 
L 691 4666 
z
" transform="scale(0.015625)"/>
       </defs>
       <use xlink:href="#DejaVuSans-35"/>
       <use xlink:href="#DejaVuSans-30" x="63.623047"/>
       <use xlink:href="#DejaVuSans-30" x="127.246094"/>
      </g>
     </g>
    </g>
    <g id="ytick_3">
     <g id="line2d_9">
      <g>
       <use xlink:href="#m402f66a5fb" x="135" y="231.040369" style="stroke: #000000; stroke-width: 0.8"/>
      </g>
     </g>
     <g id="text_10">
      <!-- 1000 -->
      <g transform="translate(102.55 234.839588)scale(0.1 -0.1)">
       <use xlink:href="#DejaVuSans-31"/>
       <use xlink:href="#DejaVuSans-30" x="63.623047"/>
       <use xlink:href="#DejaVuSans-30" x="127.246094"/>
       <use xlink:href="#DejaVuSans-30" x="190.869141"/>
      </g>
     </g>
    </g>
    <g id="ytick_4">
     <g id="line2d_10">
      <g>
       <use xlink:href="#m402f66a5fb" x="135" y="164.973281" style="stroke: #000000; stroke-width: 0.8"/>
      </g>
     </g>
     <g id="text_11">
      <!-- 1500 -->
      <g transform="translate(102.55 168.7725)scale(0.1 -0.1)">
       <use xlink:href="#DejaVuSans-31"/>
       <use xlink:href="#DejaVuSans-35" x="63.623047"/>
       <use xlink:href="#DejaVuSans-30" x="127.246094"/>
       <use xlink:href="#DejaVuSans-30" x="190.869141"/>
      </g>
     </g>
    </g>
    <g id="ytick_5">
     <g id="line2d_11">
      <g>
       <use xlink:href="#m402f66a5fb" x="135" y="98.906193" style="stroke: #000000; stroke-width: 0.8"/>
      </g>
     </g>
     <g id="text_12">
      <!-- 2000 -->
      <g transform="translate(102.55 102.705412)scale(0.1 -0.1)">
       <use xlink:href="#DejaVuSans-32"/>
       <use xlink:href="#DejaVuSans-30" x="63.623047"/>
       <use xlink:href="#DejaVuSans-30" x="127.246094"/>
       <use xlink:href="#DejaVuSans-30" x="190.869141"/>
      </g>
     </g>
    </g>
    <g id="text_13">
     <!-- frequency -->
     <g transform="translate(96.470312 239.996562)rotate(-90)scale(0.1 -0.1)">
      <defs>
       <path id="DejaVuSans-66" d="M 2375 4863 
L 2375 4384 
L 1825 4384 
Q 1516 4384 1395 4259 
Q 1275 4134 1275 3809 
L 1275 3500 
L 2222 3500 
L 2222 3053 
L 1275 3053 
L 1275 0 
L 697 0 
L 697 3053 
L 147 3053 
L 147 3500 
L 697 3500 
L 697 3744 
Q 697 4328 969 4595 
Q 1241 4863 1831 4863 
L 2375 4863 
z
" transform="scale(0.015625)"/>
       <path id="DejaVuSans-72" d="M 2631 2963 
Q 2534 3019 2420 3045 
Q 2306 3072 2169 3072 
Q 1681 3072 1420 2755 
Q 1159 2438 1159 1844 
L 1159 0 
L 581 0 
L 581 3500 
L 1159 3500 
L 1159 2956 
Q 1341 3275 1631 3429 
Q 1922 3584 2338 3584 
Q 2397 3584 2469 3576 
Q 2541 3569 2628 3553 
L 2631 2963 
z
" transform="scale(0.015625)"/>
       <path id="DejaVuSans-71" d="M 947 1747 
Q 947 1113 1208 752 
Q 1469 391 1925 391 
Q 2381 391 2643 752 
Q 2906 1113 2906 1747 
Q 2906 2381 2643 2742 
Q 2381 3103 1925 3103 
Q 1469 3103 1208 2742 
Q 947 2381 947 1747 
z
M 2906 525 
Q 2725 213 2448 61 
Q 2172 -91 1784 -91 
Q 1150 -91 751 415 
Q 353 922 353 1747 
Q 353 2572 751 3078 
Q 1150 3584 1784 3584 
Q 2172 3584 2448 3432 
Q 2725 3281 2906 2969 
L 2906 3500 
L 3481 3500 
L 3481 -1331 
L 2906 -1331 
L 2906 525 
z
" transform="scale(0.015625)"/>
       <path id="DejaVuSans-75" d="M 544 1381 
L 544 3500 
L 1119 3500 
L 1119 1403 
Q 1119 906 1312 657 
Q 1506 409 1894 409 
Q 2359 409 2629 706 
Q 2900 1003 2900 1516 
L 2900 3500 
L 3475 3500 
L 3475 0 
L 2900 0 
L 2900 538 
Q 2691 219 2414 64 
Q 2138 -91 1772 -91 
Q 1169 -91 856 284 
Q 544 659 544 1381 
z
M 1991 3584 
L 1991 3584 
z
" transform="scale(0.015625)"/>
       <path id="DejaVuSans-6e" d="M 3513 2113 
L 3513 0 
L 2938 0 
L 2938 2094 
Q 2938 2591 2744 2837 
Q 2550 3084 2163 3084 
Q 1697 3084 1428 2787 
Q 1159 2491 1159 1978 
L 1159 0 
L 581 0 
L 581 3500 
L 1159 3500 
L 1159 2956 
Q 1366 3272 1645 3428 
Q 1925 3584 2291 3584 
Q 2894 3584 3203 3211 
Q 3513 2838 3513 2113 
z
" transform="scale(0.015625)"/>
       <path id="DejaVuSans-63" d="M 3122 3366 
L 3122 2828 
Q 2878 2963 2633 3030 
Q 2388 3097 2138 3097 
Q 1578 3097 1268 2742 
Q 959 2388 959 1747 
Q 959 1106 1268 751 
Q 1578 397 2138 397 
Q 2388 397 2633 464 
Q 2878 531 3122 666 
L 3122 134 
Q 2881 22 2623 -34 
Q 2366 -91 2075 -91 
Q 1284 -91 818 406 
Q 353 903 353 1747 
Q 353 2603 823 3093 
Q 1294 3584 2113 3584 
Q 2378 3584 2631 3529 
Q 2884 3475 3122 3366 
z
" transform="scale(0.015625)"/>
       <path id="DejaVuSans-79" d="M 2059 -325 
Q 1816 -950 1584 -1140 
Q 1353 -1331 966 -1331 
L 506 -1331 
L 506 -850 
L 844 -850 
Q 1081 -850 1212 -737 
Q 1344 -625 1503 -206 
L 1606 56 
L 191 3500 
L 800 3500 
L 1894 763 
L 2988 3500 
L 3597 3500 
L 2059 -325 
z
" transform="scale(0.015625)"/>
      </defs>
      <use xlink:href="#DejaVuSans-66"/>
      <use xlink:href="#DejaVuSans-72" x="35.205078"/>
      <use xlink:href="#DejaVuSans-65" x="74.068359"/>
      <use xlink:href="#DejaVuSans-71" x="135.591797"/>
      <use xlink:href="#DejaVuSans-75" x="199.068359"/>
      <use xlink:href="#DejaVuSans-65" x="262.447266"/>
      <use xlink:href="#DejaVuSans-6e" x="323.970703"/>
      <use xlink:href="#DejaVuSans-63" x="387.349609"/>
      <use xlink:href="#DejaVuSans-79" x="442.330078"/>
     </g>
    </g>
   </g>
   <g id="line2d_12">
    <path d="M 135 363.174545 
L 135.380455 84.635702 
L 135.760909 216.109208 
L 136.141364 274.908916 
L 136.902273 315.606242 
L 137.282727 327.498318 
L 137.663182 332.651551 
L 138.043636 339.390394 
L 138.424091 344.147224 
L 138.804545 344.543627 
L 139.185 345.468566 
L 139.565455 348.111249 
L 139.945909 351.546738 
L 140.326364 352.075275 
L 140.706818 353.264482 
L 141.087273 354.982227 
L 141.467727 354.585824 
L 141.848182 356.303568 
L 142.228636 356.964239 
L 142.609091 355.775032 
L 142.989545 359.21052 
L 143.37 357.62491 
L 143.750455 359.739057 
L 144.130909 358.549849 
L 144.511364 358.681983 
L 144.891818 358.153447 
L 145.272273 358.946252 
L 145.652727 360.399728 
L 146.033182 359.21052 
L 146.413636 359.078386 
L 146.794091 359.21052 
L 147.174545 360.79613 
L 147.555 360.399728 
L 147.935455 361.324667 
L 148.315909 361.060399 
L 148.696364 361.985338 
L 149.076818 360.531862 
L 149.457273 360.399728 
L 149.837727 361.192533 
L 150.218182 359.871191 
L 150.598636 361.72107 
L 150.979091 361.588935 
L 151.359545 360.928264 
L 151.74 361.324667 
L 152.120455 361.192533 
L 152.500909 361.456801 
L 152.881364 362.249606 
L 154.022727 361.060399 
L 154.403182 362.778143 
L 154.783636 361.72107 
L 155.164091 362.38174 
L 155.544545 361.853204 
L 155.925 361.853204 
L 156.305455 362.38174 
L 156.685909 362.249606 
L 157.066364 362.513875 
L 157.446818 362.117472 
L 157.827273 362.117472 
L 158.207727 362.513875 
L 158.588182 361.72107 
L 158.968636 362.513875 
L 159.349091 362.778143 
L 159.729545 362.513875 
L 160.490455 362.778143 
L 160.870909 362.778143 
L 161.251364 362.910277 
L 161.631818 362.513875 
L 162.012273 362.513875 
L 162.392727 362.646009 
L 162.773182 362.646009 
L 163.153636 362.778143 
L 163.534091 363.174545 
L 163.914545 362.910277 
L 164.295 363.042411 
L 165.055909 362.513875 
L 165.436364 362.646009 
L 165.816818 362.910277 
L 166.197273 362.910277 
L 166.577727 362.778143 
L 166.958182 362.910277 
L 167.338636 362.778143 
L 167.719091 363.174545 
L 168.099545 363.042411 
L 168.48 362.778143 
L 169.240909 363.174545 
L 169.621364 362.778143 
L 170.001818 363.042411 
L 170.762727 363.042411 
L 171.143182 362.646009 
L 171.523636 363.042411 
L 171.904091 362.646009 
L 172.284545 363.042411 
L 172.665 363.174545 
L 173.045455 363.174545 
L 173.425909 362.646009 
L 173.806364 363.042411 
L 174.186818 362.910277 
L 174.567273 362.910277 
L 174.947727 363.042411 
L 175.328182 363.042411 
L 175.708636 363.174545 
L 176.089091 362.910277 
L 176.85 363.174545 
L 177.230455 363.174545 
L 177.610909 363.042411 
L 177.991364 363.174545 
L 178.371818 363.042411 
L 178.752273 363.042411 
L 179.132727 363.174545 
L 179.513182 363.042411 
L 179.893636 363.174545 
L 180.274091 363.042411 
L 180.654545 363.174545 
L 181.035 363.174545 
L 181.415455 363.042411 
L 182.556818 363.042411 
L 182.937273 362.910277 
L 183.317727 363.174545 
L 183.698182 363.042411 
L 184.078636 363.174545 
L 185.600455 363.174545 
L 185.980909 363.042411 
L 186.361364 363.174545 
L 186.741818 363.042411 
L 187.122273 363.174545 
L 187.502727 363.042411 
L 188.263636 363.042411 
L 188.644091 362.910277 
L 189.024545 363.174545 
L 189.405 363.042411 
L 189.785455 363.174545 
L 190.165909 363.042411 
L 190.546364 363.174545 
L 190.926818 363.174545 
L 191.307273 363.042411 
L 191.687727 363.174545 
L 192.068182 363.042411 
L 192.448636 363.174545 
L 192.829091 363.174545 
L 193.209545 363.042411 
L 193.59 363.174545 
L 195.492273 363.174545 
L 195.872727 363.042411 
L 196.253182 363.174545 
L 196.633636 363.042411 
L 197.014091 363.174545 
L 198.535909 363.174545 
L 199.296818 362.910277 
L 199.677273 363.174545 
L 202.340455 363.174545 
L 202.720909 362.910277 
L 203.101364 363.174545 
L 203.481818 363.042411 
L 203.862273 363.174545 
L 210.33 363.174545 
L 210.710455 363.042411 
L 211.090909 363.174545 
L 211.471364 362.910277 
L 212.232273 363.174545 
L 212.612727 363.174545 
L 212.993182 363.042411 
L 213.373636 363.174545 
L 214.895455 363.174545 
L 215.275909 363.042411 
L 215.656364 363.042411 
L 216.036818 363.174545 
L 219.460909 363.174545 
L 219.841364 363.042411 
L 220.221818 363.174545 
L 222.885 363.174545 
L 223.265455 363.042411 
L 223.645909 363.174545 
L 233.157273 363.174545 
L 233.537727 363.042411 
L 233.918182 363.174545 
L 234.679091 363.174545 
L 235.059545 363.042411 
L 235.44 363.042411 
L 235.820455 363.174545 
L 236.961818 363.174545 
L 237.342273 363.042411 
L 237.722727 363.174545 
L 284.518636 363.174545 
L 284.899091 363.042411 
L 285.279545 363.174545 
L 515.074091 363.174545 
L 515.074091 363.174545 
" clip-path="url(#pbf4210302f)" style="fill: none; stroke: #1f77b4; stroke-width: 1.5; stroke-linecap: square"/>
   </g>
   <g id="line2d_13">
    <path d="M 135 363.174545 
L 135.380455 202.631522 
L 135.760909 270.812756 
L 136.141364 310.717278 
L 136.902273 337.144113 
L 137.282727 340.183199 
L 138.043636 350.489665 
L 138.424091 350.753933 
L 138.804545 352.603811 
L 139.185 355.775032 
L 139.565455 356.964239 
L 139.945909 358.549849 
L 140.326364 357.62491 
L 140.706818 357.492776 
L 141.087273 359.606923 
L 141.467727 359.342654 
L 141.848182 360.135459 
L 142.228636 360.267594 
L 142.989545 361.192533 
L 143.37 361.192533 
L 143.750455 361.985338 
L 144.130909 361.72107 
L 144.511364 361.72107 
L 144.891818 361.985338 
L 145.272273 361.324667 
L 145.652727 361.72107 
L 146.033182 361.72107 
L 146.413636 361.588935 
L 146.794091 362.513875 
L 147.174545 361.985338 
L 148.696364 362.910277 
L 149.076818 362.778143 
L 149.457273 362.778143 
L 150.218182 362.117472 
L 150.598636 362.910277 
L 150.979091 362.646009 
L 151.359545 363.174545 
L 151.74 362.646009 
L 152.120455 363.042411 
L 152.500909 363.042411 
L 152.881364 363.174545 
L 153.261818 362.778143 
L 153.642273 363.174545 
L 154.022727 362.646009 
L 154.403182 362.646009 
L 154.783636 363.042411 
L 155.164091 363.174545 
L 155.544545 363.042411 
L 155.925 363.042411 
L 156.305455 362.910277 
L 156.685909 362.910277 
L 157.446818 363.174545 
L 157.827273 363.042411 
L 158.207727 362.778143 
L 158.588182 363.174545 
L 158.968636 363.042411 
L 159.349091 362.778143 
L 159.729545 363.174545 
L 160.11 362.910277 
L 160.490455 363.042411 
L 160.870909 363.042411 
L 161.251364 363.174545 
L 163.153636 363.174545 
L 163.914545 362.910277 
L 164.295 363.042411 
L 164.675455 362.910277 
L 165.055909 363.174545 
L 165.436364 363.174545 
L 165.816818 363.042411 
L 166.197273 363.042411 
L 166.577727 363.174545 
L 166.958182 362.910277 
L 167.338636 363.174545 
L 167.719091 363.042411 
L 168.099545 363.174545 
L 168.48 363.042411 
L 168.860455 363.042411 
L 169.240909 363.174545 
L 171.904091 363.174545 
L 172.284545 362.910277 
L 172.665 363.174545 
L 173.425909 363.174545 
L 173.806364 362.910277 
L 174.186818 363.174545 
L 174.947727 363.174545 
L 175.328182 363.042411 
L 175.708636 363.042411 
L 176.089091 363.174545 
L 177.610909 363.174545 
L 177.991364 363.042411 
L 178.371818 363.174545 
L 184.459091 363.174545 
L 184.839545 363.042411 
L 185.22 363.174545 
L 189.024545 363.174545 
L 189.405 363.042411 
L 189.785455 363.042411 
L 190.165909 363.174545 
L 194.731364 363.174545 
L 195.111818 363.042411 
L 195.492273 363.174545 
L 197.775 363.174545 
L 198.155455 363.042411 
L 198.535909 363.174545 
L 202.340455 363.174545 
L 202.720909 363.042411 
L 203.101364 363.174545 
L 515.074091 363.174545 
L 515.074091 363.174545 
" clip-path="url(#pbf4210302f)" style="fill: none; stroke: #ff7f0e; stroke-width: 1.5; stroke-linecap: square"/>
   </g>
   <g id="line2d_14">
    <path d="M 135 363.174545 
L 135.380455 66.665455 
L 135.760909 179.904443 
L 136.141364 243.72525 
L 136.521818 276.62666 
L 137.282727 315.341974 
L 137.663182 318.248926 
L 138.043636 329.348196 
L 138.424091 332.255148 
L 138.804545 340.183199 
L 139.185 344.411492 
L 141.087273 354.057287 
L 141.848182 356.171434 
L 142.228636 358.285581 
L 142.609091 358.021313 
L 142.989545 358.946252 
L 143.37 357.62491 
L 143.750455 359.342654 
L 144.130909 358.814118 
L 144.511364 359.342654 
L 144.891818 360.79613 
L 145.272273 360.531862 
L 145.652727 360.663996 
L 146.033182 359.474789 
L 146.413636 360.79613 
L 147.174545 362.117472 
L 147.555 361.324667 
L 147.935455 361.853204 
L 148.696364 361.456801 
L 149.076818 361.72107 
L 149.457273 362.249606 
L 149.837727 362.513875 
L 150.218182 361.588935 
L 150.598636 362.249606 
L 150.979091 362.117472 
L 152.120455 362.117472 
L 152.500909 362.778143 
L 152.881364 362.778143 
L 153.261818 362.646009 
L 153.642273 362.249606 
L 154.022727 362.778143 
L 154.403182 362.910277 
L 154.783636 362.910277 
L 155.164091 362.778143 
L 155.544545 362.910277 
L 155.925 362.910277 
L 156.305455 362.778143 
L 157.066364 362.778143 
L 157.827273 362.513875 
L 158.207727 363.174545 
L 158.588182 362.646009 
L 158.968636 362.646009 
L 159.349091 362.513875 
L 159.729545 362.910277 
L 160.490455 363.174545 
L 161.251364 362.513875 
L 161.631818 363.042411 
L 162.012273 362.778143 
L 162.392727 363.042411 
L 162.773182 362.910277 
L 163.153636 363.174545 
L 163.534091 362.910277 
L 163.914545 363.174545 
L 164.295 362.646009 
L 164.675455 363.174545 
L 165.055909 363.174545 
L 165.436364 362.910277 
L 165.816818 363.042411 
L 166.197273 363.042411 
L 166.577727 363.174545 
L 166.958182 363.174545 
L 167.338636 363.042411 
L 167.719091 363.174545 
L 168.099545 362.910277 
L 168.860455 363.174545 
L 169.240909 363.042411 
L 169.621364 363.174545 
L 170.001818 362.910277 
L 170.382273 363.042411 
L 170.762727 363.042411 
L 171.143182 363.174545 
L 171.904091 363.174545 
L 172.284545 363.042411 
L 172.665 363.174545 
L 173.045455 363.174545 
L 173.425909 363.042411 
L 173.806364 363.174545 
L 174.567273 363.174545 
L 174.947727 363.042411 
L 175.328182 363.174545 
L 175.708636 363.174545 
L 176.089091 363.042411 
L 176.469545 363.174545 
L 176.85 363.042411 
L 177.230455 363.174545 
L 177.991364 363.174545 
L 178.371818 363.042411 
L 178.752273 363.174545 
L 179.893636 363.174545 
L 180.274091 363.042411 
L 180.654545 363.174545 
L 182.176364 363.174545 
L 182.556818 363.042411 
L 182.937273 363.174545 
L 183.317727 363.174545 
L 183.698182 363.042411 
L 184.078636 363.174545 
L 185.980909 363.174545 
L 186.361364 363.042411 
L 186.741818 363.042411 
L 187.122273 363.174545 
L 187.502727 363.174545 
L 187.883182 363.042411 
L 188.263636 363.174545 
L 188.644091 363.042411 
L 189.024545 363.174545 
L 189.405 363.174545 
L 189.785455 363.042411 
L 190.165909 363.174545 
L 190.546364 363.174545 
L 190.926818 363.042411 
L 191.307273 363.174545 
L 191.687727 363.174545 
L 192.068182 363.042411 
L 192.448636 363.174545 
L 192.829091 363.174545 
L 193.209545 363.042411 
L 193.59 363.174545 
L 193.970455 363.042411 
L 194.350909 363.174545 
L 196.253182 363.174545 
L 196.633636 363.042411 
L 197.014091 363.174545 
L 197.775 363.174545 
L 198.155455 363.042411 
L 198.535909 363.042411 
L 198.916364 363.174545 
L 209.188636 363.174545 
L 209.569091 363.042411 
L 209.949545 363.042411 
L 210.33 363.174545 
L 211.851818 363.174545 
L 212.232273 363.042411 
L 212.612727 363.174545 
L 212.993182 363.174545 
L 213.373636 363.042411 
L 213.754091 363.174545 
L 214.134545 363.174545 
L 214.515 363.042411 
L 214.895455 363.174545 
L 221.363182 363.174545 
L 221.743636 363.042411 
L 222.124091 363.174545 
L 225.167727 363.174545 
L 225.548182 363.042411 
L 225.928636 363.174545 
L 229.352727 363.174545 
L 229.733182 363.042411 
L 230.113636 363.174545 
L 238.864091 363.174545 
L 239.244545 363.042411 
L 239.625 363.174545 
L 267.398182 363.174545 
L 267.778636 363.042411 
L 268.159091 363.174545 
L 515.074091 363.174545 
L 515.074091 363.174545 
" clip-path="url(#pbf4210302f)" style="fill: none; stroke: #2ca02c; stroke-width: 1.5; stroke-linecap: square"/>
   </g>
   <g id="line2d_15">
    <path d="M 135 363.174545 
L 135.380455 243.460982 
L 136.141364 306.35685 
L 136.902273 328.555391 
L 137.282727 337.672649 
L 138.043636 345.732834 
L 138.424091 346.657773 
L 138.804545 351.28247 
L 139.185 352.471677 
L 139.565455 355.642897 
L 139.945909 357.492776 
L 140.326364 355.775032 
L 140.706818 358.285581 
L 141.087273 359.342654 
L 141.467727 358.153447 
L 141.848182 359.21052 
L 142.228636 359.078386 
L 142.609091 360.135459 
L 142.989545 360.003325 
L 143.37 361.853204 
L 143.750455 361.324667 
L 144.130909 361.588935 
L 144.511364 362.38174 
L 144.891818 360.928264 
L 145.272273 360.928264 
L 145.652727 361.853204 
L 146.413636 362.646009 
L 146.794091 361.985338 
L 147.555 362.513875 
L 147.935455 362.513875 
L 148.315909 361.985338 
L 148.696364 362.778143 
L 149.076818 362.910277 
L 149.457273 362.646009 
L 149.837727 363.042411 
L 150.218182 362.38174 
L 150.598636 362.910277 
L 150.979091 362.910277 
L 151.74 362.249606 
L 152.120455 362.778143 
L 152.500909 362.38174 
L 152.881364 363.174545 
L 153.261818 363.174545 
L 153.642273 362.778143 
L 154.022727 362.778143 
L 154.403182 363.174545 
L 154.783636 363.042411 
L 155.164091 363.042411 
L 155.544545 362.910277 
L 155.925 362.910277 
L 156.305455 363.174545 
L 156.685909 363.042411 
L 157.066364 363.174545 
L 157.446818 363.042411 
L 157.827273 363.042411 
L 158.207727 363.174545 
L 158.588182 363.042411 
L 158.968636 363.174545 
L 159.729545 363.174545 
L 160.11 362.778143 
L 160.490455 363.174545 
L 162.012273 363.174545 
L 162.392727 362.910277 
L 163.153636 363.174545 
L 166.577727 363.174545 
L 167.338636 362.910277 
L 167.719091 363.174545 
L 168.099545 363.174545 
L 168.48 363.042411 
L 168.860455 363.174545 
L 169.240909 363.042411 
L 169.621364 363.174545 
L 170.001818 362.910277 
L 170.382273 363.174545 
L 171.143182 363.174545 
L 171.523636 363.042411 
L 171.904091 363.174545 
L 172.284545 363.174545 
L 172.665 363.042411 
L 173.425909 363.042411 
L 173.806364 363.174545 
L 174.186818 363.042411 
L 174.567273 363.174545 
L 175.328182 363.174545 
L 175.708636 363.042411 
L 176.089091 363.042411 
L 176.469545 363.174545 
L 179.893636 363.174545 
L 180.274091 362.778143 
L 180.654545 363.174545 
L 184.078636 363.174545 
L 184.459091 363.042411 
L 184.839545 363.174545 
L 187.883182 363.174545 
L 188.263636 363.042411 
L 188.644091 363.174545 
L 190.546364 363.174545 
L 190.926818 363.042411 
L 191.307273 363.174545 
L 191.687727 363.042411 
L 192.068182 363.174545 
L 202.720909 363.174545 
L 203.101364 363.042411 
L 203.481818 363.174545 
L 218.319545 363.174545 
L 218.7 363.042411 
L 219.080455 363.174545 
L 515.074091 363.174545 
L 515.074091 363.174545 
" clip-path="url(#pbf4210302f)" style="fill: none; stroke: #d62728; stroke-width: 1.5; stroke-linecap: square"/>
   </g>
   <g id="line2d_16"/>
   <g id="line2d_17"/>
   <g id="line2d_18"/>
   <g id="line2d_19"/>
   <g id="patch_3">
    <path d="M 135 378 
L 135 51.84 
" style="fill: none; stroke: #000000; stroke-width: 0.8; stroke-linejoin: miter; stroke-linecap: square"/>
   </g>
   <g id="patch_4">
    <path d="M 515.454545 378 
L 515.454545 51.84 
" style="fill: none; stroke: #000000; stroke-width: 0.8; stroke-linejoin: miter; stroke-linecap: square"/>
   </g>
   <g id="patch_5">
    <path d="M 135 378 
L 515.454545 378 
" style="fill: none; stroke: #000000; stroke-width: 0.8; stroke-linejoin: miter; stroke-linecap: square"/>
   </g>
   <g id="patch_6">
    <path d="M 135 51.84 
L 515.454545 51.84 
" style="fill: none; stroke: #000000; stroke-width: 0.8; stroke-linejoin: miter; stroke-linecap: square"/>
   </g>
   <g id="legend_1">
    <g id="patch_7">
     <path d="M 402.52642 133.230625 
L 508.454545 133.230625 
Q 510.454545 133.230625 510.454545 131.230625 
L 510.454545 58.84 
Q 510.454545 56.84 508.454545 56.84 
L 402.52642 56.84 
Q 400.52642 56.84 400.52642 58.84 
L 400.52642 131.230625 
Q 400.52642 133.230625 402.52642 133.230625 
z
" style="fill: #ffffff; opacity: 0.8; stroke: #cccccc; stroke-linejoin: miter"/>
    </g>
    <g id="text_14">
     <!-- Network -->
     <g transform="translate(434.61392 68.438437)scale(0.1 -0.1)">
      <defs>
       <path id="DejaVuSans-4e" d="M 628 4666 
L 1478 4666 
L 3547 763 
L 3547 4666 
L 4159 4666 
L 4159 0 
L 3309 0 
L 1241 3903 
L 1241 0 
L 628 0 
L 628 4666 
z
" transform="scale(0.015625)"/>
       <path id="DejaVuSans-74" d="M 1172 4494 
L 1172 3500 
L 2356 3500 
L 2356 3053 
L 1172 3053 
L 1172 1153 
Q 1172 725 1289 603 
Q 1406 481 1766 481 
L 2356 481 
L 2356 0 
L 1766 0 
Q 1100 0 847 248 
Q 594 497 594 1153 
L 594 3053 
L 172 3053 
L 172 3500 
L 594 3500 
L 594 4494 
L 1172 4494 
z
" transform="scale(0.015625)"/>
       <path id="DejaVuSans-77" d="M 269 3500 
L 844 3500 
L 1563 769 
L 2278 3500 
L 2956 3500 
L 3675 769 
L 4391 3500 
L 4966 3500 
L 4050 0 
L 3372 0 
L 2619 2869 
L 1863 0 
L 1184 0 
L 269 3500 
z
" transform="scale(0.015625)"/>
       <path id="DejaVuSans-6f" d="M 1959 3097 
Q 1497 3097 1228 2736 
Q 959 2375 959 1747 
Q 959 1119 1226 758 
Q 1494 397 1959 397 
Q 2419 397 2687 759 
Q 2956 1122 2956 1747 
Q 2956 2369 2687 2733 
Q 2419 3097 1959 3097 
z
M 1959 3584 
Q 2709 3584 3137 3096 
Q 3566 2609 3566 1747 
Q 3566 888 3137 398 
Q 2709 -91 1959 -91 
Q 1206 -91 779 398 
Q 353 888 353 1747 
Q 353 2609 779 3096 
Q 1206 3584 1959 3584 
z
" transform="scale(0.015625)"/>
       <path id="DejaVuSans-6b" d="M 581 4863 
L 1159 4863 
L 1159 1991 
L 2875 3500 
L 3609 3500 
L 1753 1863 
L 3688 0 
L 2938 0 
L 1159 1709 
L 1159 0 
L 581 0 
L 581 4863 
z
" transform="scale(0.015625)"/>
      </defs>
      <use xlink:href="#DejaVuSans-4e"/>
      <use xlink:href="#DejaVuSans-65" x="74.804688"/>
      <use xlink:href="#DejaVuSans-74" x="136.328125"/>
      <use xlink:href="#DejaVuSans-77" x="175.537109"/>
      <use xlink:href="#DejaVuSans-6f" x="257.324219"/>
      <use xlink:href="#DejaVuSans-72" x="318.505859"/>
      <use xlink:href="#DejaVuSans-6b" x="359.619141"/>
     </g>
    </g>
    <g id="line2d_20">
     <path d="M 404.52642 79.616562 
L 414.52642 79.616562 
L 424.52642 79.616562 
" style="fill: none; stroke: #1f77b4; stroke-width: 1.5; stroke-linecap: square"/>
    </g>
    <g id="text_15">
     <!-- Y2H-complete -->
     <g transform="translate(432.52642 83.116562)scale(0.1 -0.1)">
      <defs>
       <path id="DejaVuSans-59" d="M -13 4666 
L 666 4666 
L 1959 2747 
L 3244 4666 
L 3922 4666 
L 2272 2222 
L 2272 0 
L 1638 0 
L 1638 2222 
L -13 4666 
z
" transform="scale(0.015625)"/>
       <path id="DejaVuSans-48" d="M 628 4666 
L 1259 4666 
L 1259 2753 
L 3553 2753 
L 3553 4666 
L 4184 4666 
L 4184 0 
L 3553 0 
L 3553 2222 
L 1259 2222 
L 1259 0 
L 628 0 
L 628 4666 
z
" transform="scale(0.015625)"/>
       <path id="DejaVuSans-2d" d="M 313 2009 
L 1997 2009 
L 1997 1497 
L 313 1497 
L 313 2009 
z
" transform="scale(0.015625)"/>
       <path id="DejaVuSans-6d" d="M 3328 2828 
Q 3544 3216 3844 3400 
Q 4144 3584 4550 3584 
Q 5097 3584 5394 3201 
Q 5691 2819 5691 2113 
L 5691 0 
L 5113 0 
L 5113 2094 
Q 5113 2597 4934 2840 
Q 4756 3084 4391 3084 
Q 3944 3084 3684 2787 
Q 3425 2491 3425 1978 
L 3425 0 
L 2847 0 
L 2847 2094 
Q 2847 2600 2669 2842 
Q 2491 3084 2119 3084 
Q 1678 3084 1418 2786 
Q 1159 2488 1159 1978 
L 1159 0 
L 581 0 
L 581 3500 
L 1159 3500 
L 1159 2956 
Q 1356 3278 1631 3431 
Q 1906 3584 2284 3584 
Q 2666 3584 2933 3390 
Q 3200 3197 3328 2828 
z
" transform="scale(0.015625)"/>
       <path id="DejaVuSans-70" d="M 1159 525 
L 1159 -1331 
L 581 -1331 
L 581 3500 
L 1159 3500 
L 1159 2969 
Q 1341 3281 1617 3432 
Q 1894 3584 2278 3584 
Q 2916 3584 3314 3078 
Q 3713 2572 3713 1747 
Q 3713 922 3314 415 
Q 2916 -91 2278 -91 
Q 1894 -91 1617 61 
Q 1341 213 1159 525 
z
M 3116 1747 
Q 3116 2381 2855 2742 
Q 2594 3103 2138 3103 
Q 1681 3103 1420 2742 
Q 1159 2381 1159 1747 
Q 1159 1113 1420 752 
Q 1681 391 2138 391 
Q 2594 391 2855 752 
Q 3116 1113 3116 1747 
z
" transform="scale(0.015625)"/>
       <path id="DejaVuSans-6c" d="M 603 4863 
L 1178 4863 
L 1178 0 
L 603 0 
L 603 4863 
z
" transform="scale(0.015625)"/>
      </defs>
      <use xlink:href="#DejaVuSans-59"/>
      <use xlink:href="#DejaVuSans-32" x="61.083984"/>
      <use xlink:href="#DejaVuSans-48" x="124.707031"/>
      <use xlink:href="#DejaVuSans-2d" x="199.902344"/>
      <use xlink:href="#DejaVuSans-63" x="235.986328"/>
      <use xlink:href="#DejaVuSans-6f" x="290.966797"/>
      <use xlink:href="#DejaVuSans-6d" x="352.148438"/>
      <use xlink:href="#DejaVuSans-70" x="449.560547"/>
      <use xlink:href="#DejaVuSans-6c" x="513.037109"/>
      <use xlink:href="#DejaVuSans-65" x="540.820312"/>
      <use xlink:href="#DejaVuSans-74" x="602.34375"/>
      <use xlink:href="#DejaVuSans-65" x="641.552734"/>
     </g>
    </g>
    <g id="line2d_21">
     <path d="M 404.52642 94.294688 
L 414.52642 94.294688 
L 424.52642 94.294688 
" style="fill: none; stroke: #ff7f0e; stroke-width: 1.5; stroke-linecap: square"/>
    </g>
    <g id="text_16">
     <!-- Y2H-shared -->
     <g transform="translate(432.52642 97.794688)scale(0.1 -0.1)">
      <defs>
       <path id="DejaVuSans-73" d="M 2834 3397 
L 2834 2853 
Q 2591 2978 2328 3040 
Q 2066 3103 1784 3103 
Q 1356 3103 1142 2972 
Q 928 2841 928 2578 
Q 928 2378 1081 2264 
Q 1234 2150 1697 2047 
L 1894 2003 
Q 2506 1872 2764 1633 
Q 3022 1394 3022 966 
Q 3022 478 2636 193 
Q 2250 -91 1575 -91 
Q 1294 -91 989 -36 
Q 684 19 347 128 
L 347 722 
Q 666 556 975 473 
Q 1284 391 1588 391 
Q 1994 391 2212 530 
Q 2431 669 2431 922 
Q 2431 1156 2273 1281 
Q 2116 1406 1581 1522 
L 1381 1569 
Q 847 1681 609 1914 
Q 372 2147 372 2553 
Q 372 3047 722 3315 
Q 1072 3584 1716 3584 
Q 2034 3584 2315 3537 
Q 2597 3491 2834 3397 
z
" transform="scale(0.015625)"/>
       <path id="DejaVuSans-68" d="M 3513 2113 
L 3513 0 
L 2938 0 
L 2938 2094 
Q 2938 2591 2744 2837 
Q 2550 3084 2163 3084 
Q 1697 3084 1428 2787 
Q 1159 2491 1159 1978 
L 1159 0 
L 581 0 
L 581 4863 
L 1159 4863 
L 1159 2956 
Q 1366 3272 1645 3428 
Q 1925 3584 2291 3584 
Q 2894 3584 3203 3211 
Q 3513 2838 3513 2113 
z
" transform="scale(0.015625)"/>
       <path id="DejaVuSans-61" d="M 2194 1759 
Q 1497 1759 1228 1600 
Q 959 1441 959 1056 
Q 959 750 1161 570 
Q 1363 391 1709 391 
Q 2188 391 2477 730 
Q 2766 1069 2766 1631 
L 2766 1759 
L 2194 1759 
z
M 3341 1997 
L 3341 0 
L 2766 0 
L 2766 531 
Q 2569 213 2275 61 
Q 1981 -91 1556 -91 
Q 1019 -91 701 211 
Q 384 513 384 1019 
Q 384 1609 779 1909 
Q 1175 2209 1959 2209 
L 2766 2209 
L 2766 2266 
Q 2766 2663 2505 2880 
Q 2244 3097 1772 3097 
Q 1472 3097 1187 3025 
Q 903 2953 641 2809 
L 641 3341 
Q 956 3463 1253 3523 
Q 1550 3584 1831 3584 
Q 2591 3584 2966 3190 
Q 3341 2797 3341 1997 
z
" transform="scale(0.015625)"/>
      </defs>
      <use xlink:href="#DejaVuSans-59"/>
      <use xlink:href="#DejaVuSans-32" x="61.083984"/>
      <use xlink:href="#DejaVuSans-48" x="124.707031"/>
      <use xlink:href="#DejaVuSans-2d" x="199.902344"/>
      <use xlink:href="#DejaVuSans-73" x="235.986328"/>
      <use xlink:href="#DejaVuSans-68" x="288.085938"/>
      <use xlink:href="#DejaVuSans-61" x="351.464844"/>
      <use xlink:href="#DejaVuSans-72" x="412.744141"/>
      <use xlink:href="#DejaVuSans-65" x="451.607422"/>
      <use xlink:href="#DejaVuSans-64" x="513.130859"/>
     </g>
    </g>
    <g id="line2d_22">
     <path d="M 404.52642 108.972812 
L 414.52642 108.972812 
L 424.52642 108.972812 
" style="fill: none; stroke: #2ca02c; stroke-width: 1.5; stroke-linecap: square"/>
    </g>
    <g id="text_17">
     <!-- COIP-complete -->
     <g transform="translate(432.52642 112.472812)scale(0.1 -0.1)">
      <defs>
       <path id="DejaVuSans-43" d="M 4122 4306 
L 4122 3641 
Q 3803 3938 3442 4084 
Q 3081 4231 2675 4231 
Q 1875 4231 1450 3742 
Q 1025 3253 1025 2328 
Q 1025 1406 1450 917 
Q 1875 428 2675 428 
Q 3081 428 3442 575 
Q 3803 722 4122 1019 
L 4122 359 
Q 3791 134 3420 21 
Q 3050 -91 2638 -91 
Q 1578 -91 968 557 
Q 359 1206 359 2328 
Q 359 3453 968 4101 
Q 1578 4750 2638 4750 
Q 3056 4750 3426 4639 
Q 3797 4528 4122 4306 
z
" transform="scale(0.015625)"/>
       <path id="DejaVuSans-4f" d="M 2522 4238 
Q 1834 4238 1429 3725 
Q 1025 3213 1025 2328 
Q 1025 1447 1429 934 
Q 1834 422 2522 422 
Q 3209 422 3611 934 
Q 4013 1447 4013 2328 
Q 4013 3213 3611 3725 
Q 3209 4238 2522 4238 
z
M 2522 4750 
Q 3503 4750 4090 4092 
Q 4678 3434 4678 2328 
Q 4678 1225 4090 567 
Q 3503 -91 2522 -91 
Q 1538 -91 948 565 
Q 359 1222 359 2328 
Q 359 3434 948 4092 
Q 1538 4750 2522 4750 
z
" transform="scale(0.015625)"/>
       <path id="DejaVuSans-49" d="M 628 4666 
L 1259 4666 
L 1259 0 
L 628 0 
L 628 4666 
z
" transform="scale(0.015625)"/>
       <path id="DejaVuSans-50" d="M 1259 4147 
L 1259 2394 
L 2053 2394 
Q 2494 2394 2734 2622 
Q 2975 2850 2975 3272 
Q 2975 3691 2734 3919 
Q 2494 4147 2053 4147 
L 1259 4147 
z
M 628 4666 
L 2053 4666 
Q 2838 4666 3239 4311 
Q 3641 3956 3641 3272 
Q 3641 2581 3239 2228 
Q 2838 1875 2053 1875 
L 1259 1875 
L 1259 0 
L 628 0 
L 628 4666 
z
" transform="scale(0.015625)"/>
      </defs>
      <use xlink:href="#DejaVuSans-43"/>
      <use xlink:href="#DejaVuSans-4f" x="69.824219"/>
      <use xlink:href="#DejaVuSans-49" x="148.535156"/>
      <use xlink:href="#DejaVuSans-50" x="178.027344"/>
      <use xlink:href="#DejaVuSans-2d" x="236.080078"/>
      <use xlink:href="#DejaVuSans-63" x="272.164062"/>
      <use xlink:href="#DejaVuSans-6f" x="327.144531"/>
      <use xlink:href="#DejaVuSans-6d" x="388.326172"/>
      <use xlink:href="#DejaVuSans-70" x="485.738281"/>
      <use xlink:href="#DejaVuSans-6c" x="549.214844"/>
      <use xlink:href="#DejaVuSans-65" x="576.998047"/>
      <use xlink:href="#DejaVuSans-74" x="638.521484"/>
      <use xlink:href="#DejaVuSans-65" x="677.730469"/>
     </g>
    </g>
    <g id="line2d_23">
     <path d="M 404.52642 123.650937 
L 414.52642 123.650937 
L 424.52642 123.650937 
" style="fill: none; stroke: #d62728; stroke-width: 1.5; stroke-linecap: square"/>
    </g>
    <g id="text_18">
     <!-- COIP-shared -->
     <g transform="translate(432.52642 127.150937)scale(0.1 -0.1)">
      <use xlink:href="#DejaVuSans-43"/>
      <use xlink:href="#DejaVuSans-4f" x="69.824219"/>
      <use xlink:href="#DejaVuSans-49" x="148.535156"/>
      <use xlink:href="#DejaVuSans-50" x="178.027344"/>
      <use xlink:href="#DejaVuSans-2d" x="236.080078"/>
      <use xlink:href="#DejaVuSans-73" x="272.164062"/>
      <use xlink:href="#DejaVuSans-68" x="324.263672"/>
      <use xlink:href="#DejaVuSans-61" x="387.642578"/>
      <use xlink:href="#DejaVuSans-72" x="448.921875"/>
      <use xlink:href="#DejaVuSans-65" x="487.785156"/>
      <use xlink:href="#DejaVuSans-64" x="549.308594"/>
     </g>
    </g>
   </g>
  </g>
  <g id="axes_2">
   <g id="patch_8">
    <path d="M 591.545455 378 
L 972 378 
L 972 51.84 
L 591.545455 51.84 
z
" style="fill: #ffffff"/>
   </g>
   <g id="matplotlib.axis_3">
    <g id="xtick_7">
     <g id="line2d_24">
      <g>
       <use xlink:href="#mc9963612a9" x="591.545455" y="378" style="stroke: #000000; stroke-width: 0.8"/>
      </g>
     </g>
     <g id="text_19">
      <!-- 0 -->
      <g transform="translate(588.364205 392.598437)scale(0.1 -0.1)">
       <use xlink:href="#DejaVuSans-30"/>
      </g>
     </g>
    </g>
    <g id="xtick_8">
     <g id="line2d_25">
      <g>
       <use xlink:href="#mc9963612a9" x="654.954545" y="378" style="stroke: #000000; stroke-width: 0.8"/>
      </g>
     </g>
     <g id="text_20">
      <!-- 10 -->
      <g transform="translate(648.592045 392.598437)scale(0.1 -0.1)">
       <use xlink:href="#DejaVuSans-31"/>
       <use xlink:href="#DejaVuSans-30" x="63.623047"/>
      </g>
     </g>
    </g>
    <g id="xtick_9">
     <g id="line2d_26">
      <g>
       <use xlink:href="#mc9963612a9" x="718.363636" y="378" style="stroke: #000000; stroke-width: 0.8"/>
      </g>
     </g>
     <g id="text_21">
      <!-- 20 -->
      <g transform="translate(712.001136 392.598437)scale(0.1 -0.1)">
       <use xlink:href="#DejaVuSans-32"/>
       <use xlink:href="#DejaVuSans-30" x="63.623047"/>
      </g>
     </g>
    </g>
    <g id="xtick_10">
     <g id="line2d_27">
      <g>
       <use xlink:href="#mc9963612a9" x="781.772727" y="378" style="stroke: #000000; stroke-width: 0.8"/>
      </g>
     </g>
     <g id="text_22">
      <!-- 30 -->
      <g transform="translate(775.410227 392.598437)scale(0.1 -0.1)">
       <defs>
        <path id="DejaVuSans-33" d="M 2597 2516 
Q 3050 2419 3304 2112 
Q 3559 1806 3559 1356 
Q 3559 666 3084 287 
Q 2609 -91 1734 -91 
Q 1441 -91 1130 -33 
Q 819 25 488 141 
L 488 750 
Q 750 597 1062 519 
Q 1375 441 1716 441 
Q 2309 441 2620 675 
Q 2931 909 2931 1356 
Q 2931 1769 2642 2001 
Q 2353 2234 1838 2234 
L 1294 2234 
L 1294 2753 
L 1863 2753 
Q 2328 2753 2575 2939 
Q 2822 3125 2822 3475 
Q 2822 3834 2567 4026 
Q 2313 4219 1838 4219 
Q 1578 4219 1281 4162 
Q 984 4106 628 3988 
L 628 4550 
Q 988 4650 1302 4700 
Q 1616 4750 1894 4750 
Q 2613 4750 3031 4423 
Q 3450 4097 3450 3541 
Q 3450 3153 3228 2886 
Q 3006 2619 2597 2516 
z
" transform="scale(0.015625)"/>
       </defs>
       <use xlink:href="#DejaVuSans-33"/>
       <use xlink:href="#DejaVuSans-30" x="63.623047"/>
      </g>
     </g>
    </g>
    <g id="xtick_11">
     <g id="line2d_28">
      <g>
       <use xlink:href="#mc9963612a9" x="845.181818" y="378" style="stroke: #000000; stroke-width: 0.8"/>
      </g>
     </g>
     <g id="text_23">
      <!-- 40 -->
      <g transform="translate(838.819318 392.598437)scale(0.1 -0.1)">
       <use xlink:href="#DejaVuSans-34"/>
       <use xlink:href="#DejaVuSans-30" x="63.623047"/>
      </g>
     </g>
    </g>
    <g id="xtick_12">
     <g id="line2d_29">
      <g>
       <use xlink:href="#mc9963612a9" x="908.590909" y="378" style="stroke: #000000; stroke-width: 0.8"/>
      </g>
     </g>
     <g id="text_24">
      <!-- 50 -->
      <g transform="translate(902.228409 392.598437)scale(0.1 -0.1)">
       <use xlink:href="#DejaVuSans-35"/>
       <use xlink:href="#DejaVuSans-30" x="63.623047"/>
      </g>
     </g>
    </g>
    <g id="xtick_13">
     <g id="line2d_30">
      <g>
       <use xlink:href="#mc9963612a9" x="972" y="378" style="stroke: #000000; stroke-width: 0.8"/>
      </g>
     </g>
     <g id="text_25">
      <!-- 60 -->
      <g transform="translate(965.6375 392.598437)scale(0.1 -0.1)">
       <use xlink:href="#DejaVuSans-36"/>
       <use xlink:href="#DejaVuSans-30" x="63.623047"/>
      </g>
     </g>
    </g>
    <g id="text_26">
     <!-- deg -->
     <g transform="translate(772.347727 406.276563)scale(0.1 -0.1)">
      <use xlink:href="#DejaVuSans-64"/>
      <use xlink:href="#DejaVuSans-65" x="63.476562"/>
      <use xlink:href="#DejaVuSans-67" x="125"/>
     </g>
    </g>
   </g>
   <g id="matplotlib.axis_4">
    <g id="ytick_6">
     <g id="line2d_31">
      <g>
       <use xlink:href="#m402f66a5fb" x="591.545455" y="363.174545" style="stroke: #000000; stroke-width: 0.8"/>
      </g>
     </g>
     <g id="text_27">
      <!-- 0 -->
      <g transform="translate(578.182955 366.973764)scale(0.1 -0.1)">
       <use xlink:href="#DejaVuSans-30"/>
      </g>
     </g>
    </g>
    <g id="ytick_7">
     <g id="line2d_32">
      <g>
       <use xlink:href="#m402f66a5fb" x="591.545455" y="297.107457" style="stroke: #000000; stroke-width: 0.8"/>
      </g>
     </g>
     <g id="text_28">
      <!-- 500 -->
      <g transform="translate(565.457955 300.906676)scale(0.1 -0.1)">
       <use xlink:href="#DejaVuSans-35"/>
       <use xlink:href="#DejaVuSans-30" x="63.623047"/>
       <use xlink:href="#DejaVuSans-30" x="127.246094"/>
      </g>
     </g>
    </g>
    <g id="ytick_8">
     <g id="line2d_33">
      <g>
       <use xlink:href="#m402f66a5fb" x="591.545455" y="231.040369" style="stroke: #000000; stroke-width: 0.8"/>
      </g>
     </g>
     <g id="text_29">
      <!-- 1000 -->
      <g transform="translate(559.095455 234.839588)scale(0.1 -0.1)">
       <use xlink:href="#DejaVuSans-31"/>
       <use xlink:href="#DejaVuSans-30" x="63.623047"/>
       <use xlink:href="#DejaVuSans-30" x="127.246094"/>
       <use xlink:href="#DejaVuSans-30" x="190.869141"/>
      </g>
     </g>
    </g>
    <g id="ytick_9">
     <g id="line2d_34">
      <g>
       <use xlink:href="#m402f66a5fb" x="591.545455" y="164.973281" style="stroke: #000000; stroke-width: 0.8"/>
      </g>
     </g>
     <g id="text_30">
      <!-- 1500 -->
      <g transform="translate(559.095455 168.7725)scale(0.1 -0.1)">
       <use xlink:href="#DejaVuSans-31"/>
       <use xlink:href="#DejaVuSans-35" x="63.623047"/>
       <use xlink:href="#DejaVuSans-30" x="127.246094"/>
       <use xlink:href="#DejaVuSans-30" x="190.869141"/>
      </g>
     </g>
    </g>
    <g id="ytick_10">
     <g id="line2d_35">
      <g>
       <use xlink:href="#m402f66a5fb" x="591.545455" y="98.906193" style="stroke: #000000; stroke-width: 0.8"/>
      </g>
     </g>
     <g id="text_31">
      <!-- 2000 -->
      <g transform="translate(559.095455 102.705412)scale(0.1 -0.1)">
       <use xlink:href="#DejaVuSans-32"/>
       <use xlink:href="#DejaVuSans-30" x="63.623047"/>
       <use xlink:href="#DejaVuSans-30" x="127.246094"/>
       <use xlink:href="#DejaVuSans-30" x="190.869141"/>
      </g>
     </g>
    </g>
    <g id="text_32">
     <!-- frequency -->
     <g transform="translate(553.015767 239.996562)rotate(-90)scale(0.1 -0.1)">
      <use xlink:href="#DejaVuSans-66"/>
      <use xlink:href="#DejaVuSans-72" x="35.205078"/>
      <use xlink:href="#DejaVuSans-65" x="74.068359"/>
      <use xlink:href="#DejaVuSans-71" x="135.591797"/>
      <use xlink:href="#DejaVuSans-75" x="199.068359"/>
      <use xlink:href="#DejaVuSans-65" x="262.447266"/>
      <use xlink:href="#DejaVuSans-6e" x="323.970703"/>
      <use xlink:href="#DejaVuSans-63" x="387.349609"/>
      <use xlink:href="#DejaVuSans-79" x="442.330078"/>
     </g>
    </g>
   </g>
   <g id="line2d_36">
    <path d="M 591.545455 363.174545 
L 597.886364 84.635702 
L 604.227273 216.109208 
L 610.568182 274.908916 
L 616.909091 298.164531 
L 623.25 315.606242 
L 629.590909 327.498318 
L 635.931818 332.651551 
L 642.272727 339.390394 
L 648.613636 344.147224 
L 654.954545 344.543627 
L 661.295455 345.468566 
L 667.636364 348.111249 
L 673.977273 351.546738 
L 680.318182 352.075275 
L 686.659091 353.264482 
L 693 354.982227 
L 699.340909 354.585824 
L 705.681818 356.303568 
L 712.022727 356.964239 
L 718.363636 355.775032 
L 724.704545 359.21052 
L 731.045455 357.62491 
L 737.386364 359.739057 
L 743.727273 358.549849 
L 750.068182 358.681983 
L 756.409091 358.153447 
L 762.75 358.946252 
L 769.090909 360.399728 
L 775.431818 359.21052 
L 781.772727 359.078386 
L 788.113636 359.21052 
L 794.454545 360.79613 
L 800.795455 360.399728 
L 807.136364 361.324667 
L 813.477273 361.060399 
L 819.818182 361.985338 
L 826.159091 360.531862 
L 832.5 360.399728 
L 838.840909 361.192533 
L 845.181818 359.871191 
L 851.522727 361.72107 
L 857.863636 361.588935 
L 864.204545 360.928264 
L 870.545455 361.324667 
L 876.886364 361.192533 
L 883.227273 361.456801 
L 889.568182 362.249606 
L 908.590909 361.060399 
L 914.931818 362.778143 
L 921.272727 361.72107 
L 927.613636 362.38174 
L 933.954545 361.853204 
L 940.295455 361.853204 
L 946.636364 362.38174 
L 952.977273 362.249606 
L 959.318182 362.513875 
L 965.659091 362.117472 
L 972 362.117472 
L 978.340909 362.513875 
L 984.681818 361.72107 
L 991.022727 362.513875 
L 997.363636 362.778143 
L 1003.704545 362.513875 
L 1016.386364 362.778143 
L 1022.727273 362.778143 
L 1029.068182 362.910277 
L 1035.409091 362.513875 
L 1041.75 362.513875 
L 1048.090909 362.646009 
L 1054.431818 362.646009 
L 1060.772727 362.778143 
L 1067.113636 363.174545 
L 1073.454545 362.910277 
L 1081 362.99221 
L 1081 362.99221 
" clip-path="url(#p4ac361e987)" style="fill: none; stroke: #1f77b4; stroke-width: 1.5; stroke-linecap: square"/>
   </g>
   <g id="line2d_37">
    <path d="M 591.545455 363.174545 
L 597.886364 202.631522 
L 604.227273 270.812756 
L 610.568182 310.717278 
L 616.909091 324.591366 
L 623.25 337.144113 
L 629.590909 340.183199 
L 635.931818 344.807895 
L 642.272727 350.489665 
L 648.613636 350.753933 
L 654.954545 352.603811 
L 661.295455 355.775032 
L 667.636364 356.964239 
L 673.977273 358.549849 
L 680.318182 357.62491 
L 686.659091 357.492776 
L 693 359.606923 
L 699.340909 359.342654 
L 705.681818 360.135459 
L 712.022727 360.267594 
L 718.363636 360.663996 
L 724.704545 361.192533 
L 731.045455 361.192533 
L 737.386364 361.985338 
L 743.727273 361.72107 
L 750.068182 361.72107 
L 756.409091 361.985338 
L 762.75 361.324667 
L 769.090909 361.72107 
L 775.431818 361.72107 
L 781.772727 361.588935 
L 788.113636 362.513875 
L 794.454545 361.985338 
L 800.795455 362.249606 
L 807.136364 362.646009 
L 813.477273 362.910277 
L 819.818182 362.910277 
L 826.159091 362.778143 
L 832.5 362.778143 
L 838.840909 362.513875 
L 845.181818 362.117472 
L 851.522727 362.910277 
L 857.863636 362.646009 
L 864.204545 363.174545 
L 870.545455 362.646009 
L 876.886364 363.042411 
L 883.227273 363.042411 
L 889.568182 363.174545 
L 895.909091 362.778143 
L 902.25 363.174545 
L 908.590909 362.646009 
L 914.931818 362.646009 
L 921.272727 363.042411 
L 927.613636 363.174545 
L 933.954545 363.042411 
L 940.295455 363.042411 
L 946.636364 362.910277 
L 952.977273 362.910277 
L 965.659091 363.174545 
L 972 363.042411 
L 978.340909 362.778143 
L 984.681818 363.174545 
L 991.022727 363.042411 
L 997.363636 362.778143 
L 1003.704545 363.174545 
L 1010.045455 362.910277 
L 1016.386364 363.042411 
L 1022.727273 363.042411 
L 1029.068182 363.174545 
L 1060.772727 363.174545 
L 1073.454545 362.910277 
L 1081 363.017311 
L 1081 363.017311 
" clip-path="url(#p4ac361e987)" style="fill: none; stroke: #ff7f0e; stroke-width: 1.5; stroke-linecap: square"/>
   </g>
   <g id="line2d_38">
    <path d="M 591.545455 363.174545 
L 597.886364 66.665455 
L 604.227273 179.904443 
L 610.568182 243.72525 
L 616.909091 276.62666 
L 623.25 294.861176 
L 629.590909 315.341974 
L 635.931818 318.248926 
L 642.272727 329.348196 
L 648.613636 332.255148 
L 654.954545 340.183199 
L 661.295455 344.411492 
L 667.636364 346.393505 
L 673.977273 347.979115 
L 686.659091 352.735946 
L 693 354.057287 
L 705.681818 356.171434 
L 712.022727 358.285581 
L 718.363636 358.021313 
L 724.704545 358.946252 
L 731.045455 357.62491 
L 737.386364 359.342654 
L 743.727273 358.814118 
L 750.068182 359.342654 
L 756.409091 360.79613 
L 762.75 360.531862 
L 769.090909 360.663996 
L 775.431818 359.474789 
L 781.772727 360.79613 
L 794.454545 362.117472 
L 800.795455 361.324667 
L 807.136364 361.853204 
L 813.477273 361.588935 
L 819.818182 361.456801 
L 826.159091 361.72107 
L 832.5 362.249606 
L 838.840909 362.513875 
L 845.181818 361.588935 
L 851.522727 362.249606 
L 857.863636 362.117472 
L 876.886364 362.117472 
L 883.227273 362.778143 
L 889.568182 362.778143 
L 895.909091 362.646009 
L 902.25 362.249606 
L 908.590909 362.778143 
L 914.931818 362.910277 
L 921.272727 362.910277 
L 927.613636 362.778143 
L 933.954545 362.910277 
L 940.295455 362.910277 
L 946.636364 362.778143 
L 959.318182 362.778143 
L 972 362.513875 
L 978.340909 363.174545 
L 984.681818 362.646009 
L 991.022727 362.646009 
L 997.363636 362.513875 
L 1003.704545 362.910277 
L 1016.386364 363.174545 
L 1022.727273 362.910277 
L 1029.068182 362.513875 
L 1035.409091 363.042411 
L 1041.75 362.778143 
L 1048.090909 363.042411 
L 1054.431818 362.910277 
L 1060.772727 363.174545 
L 1067.113636 362.910277 
L 1073.454545 363.174545 
L 1079.795455 362.646009 
L 1081 362.746412 
L 1081 362.746412 
" clip-path="url(#p4ac361e987)" style="fill: none; stroke: #2ca02c; stroke-width: 1.5; stroke-linecap: square"/>
   </g>
   <g id="line2d_39">
    <path d="M 591.545455 363.174545 
L 597.886364 243.460982 
L 604.227273 272.134098 
L 610.568182 306.35685 
L 616.909091 318.909596 
L 623.25 328.555391 
L 629.590909 337.672649 
L 635.931818 341.900943 
L 642.272727 345.732834 
L 648.613636 346.657773 
L 654.954545 351.28247 
L 661.295455 352.471677 
L 667.636364 355.642897 
L 673.977273 357.492776 
L 680.318182 355.775032 
L 686.659091 358.285581 
L 693 359.342654 
L 699.340909 358.153447 
L 705.681818 359.21052 
L 712.022727 359.078386 
L 718.363636 360.135459 
L 724.704545 360.003325 
L 731.045455 361.853204 
L 737.386364 361.324667 
L 743.727273 361.588935 
L 750.068182 362.38174 
L 756.409091 360.928264 
L 762.75 360.928264 
L 769.090909 361.853204 
L 781.772727 362.646009 
L 788.113636 361.985338 
L 800.795455 362.513875 
L 807.136364 362.513875 
L 813.477273 361.985338 
L 819.818182 362.778143 
L 826.159091 362.910277 
L 832.5 362.646009 
L 838.840909 363.042411 
L 845.181818 362.38174 
L 851.522727 362.910277 
L 857.863636 362.910277 
L 864.204545 362.646009 
L 870.545455 362.249606 
L 876.886364 362.778143 
L 883.227273 362.38174 
L 889.568182 363.174545 
L 895.909091 363.174545 
L 902.25 362.778143 
L 908.590909 362.778143 
L 914.931818 363.174545 
L 921.272727 363.042411 
L 927.613636 363.042411 
L 933.954545 362.910277 
L 940.295455 362.910277 
L 946.636364 363.174545 
L 952.977273 363.042411 
L 959.318182 363.174545 
L 965.659091 363.042411 
L 972 363.042411 
L 978.340909 363.174545 
L 984.681818 363.042411 
L 991.022727 363.174545 
L 1003.704545 363.174545 
L 1010.045455 362.778143 
L 1016.386364 363.174545 
L 1041.75 363.174545 
L 1048.090909 362.910277 
L 1060.772727 363.174545 
L 1081 363.174545 
L 1081 363.174545 
" clip-path="url(#p4ac361e987)" style="fill: none; stroke: #d62728; stroke-width: 1.5; stroke-linecap: square"/>
   </g>
   <g id="line2d_40"/>
   <g id="line2d_41"/>
   <g id="line2d_42"/>
   <g id="line2d_43"/>
   <g id="patch_9">
    <path d="M 591.545455 378 
L 591.545455 51.84 
" style="fill: none; stroke: #000000; stroke-width: 0.8; stroke-linejoin: miter; stroke-linecap: square"/>
   </g>
   <g id="patch_10">
    <path d="M 972 378 
L 972 51.84 
" style="fill: none; stroke: #000000; stroke-width: 0.8; stroke-linejoin: miter; stroke-linecap: square"/>
   </g>
   <g id="patch_11">
    <path d="M 591.545455 378 
L 972 378 
" style="fill: none; stroke: #000000; stroke-width: 0.8; stroke-linejoin: miter; stroke-linecap: square"/>
   </g>
   <g id="patch_12">
    <path d="M 591.545455 51.84 
L 972 51.84 
" style="fill: none; stroke: #000000; stroke-width: 0.8; stroke-linejoin: miter; stroke-linecap: square"/>
   </g>
   <g id="legend_2">
    <g id="patch_13">
     <path d="M 859.071875 133.230625 
L 965 133.230625 
Q 967 133.230625 967 131.230625 
L 967 58.84 
Q 967 56.84 965 56.84 
L 859.071875 56.84 
Q 857.071875 56.84 857.071875 58.84 
L 857.071875 131.230625 
Q 857.071875 133.230625 859.071875 133.230625 
z
" style="fill: #ffffff; opacity: 0.8; stroke: #cccccc; stroke-linejoin: miter"/>
    </g>
    <g id="text_33">
     <!-- Network -->
     <g transform="translate(891.159375 68.438437)scale(0.1 -0.1)">
      <use xlink:href="#DejaVuSans-4e"/>
      <use xlink:href="#DejaVuSans-65" x="74.804688"/>
      <use xlink:href="#DejaVuSans-74" x="136.328125"/>
      <use xlink:href="#DejaVuSans-77" x="175.537109"/>
      <use xlink:href="#DejaVuSans-6f" x="257.324219"/>
      <use xlink:href="#DejaVuSans-72" x="318.505859"/>
      <use xlink:href="#DejaVuSans-6b" x="359.619141"/>
     </g>
    </g>
    <g id="line2d_44">
     <path d="M 861.071875 79.616562 
L 871.071875 79.616562 
L 881.071875 79.616562 
" style="fill: none; stroke: #1f77b4; stroke-width: 1.5; stroke-linecap: square"/>
    </g>
    <g id="text_34">
     <!-- Y2H-complete -->
     <g transform="translate(889.071875 83.116562)scale(0.1 -0.1)">
      <use xlink:href="#DejaVuSans-59"/>
      <use xlink:href="#DejaVuSans-32" x="61.083984"/>
      <use xlink:href="#DejaVuSans-48" x="124.707031"/>
      <use xlink:href="#DejaVuSans-2d" x="199.902344"/>
      <use xlink:href="#DejaVuSans-63" x="235.986328"/>
      <use xlink:href="#DejaVuSans-6f" x="290.966797"/>
      <use xlink:href="#DejaVuSans-6d" x="352.148438"/>
      <use xlink:href="#DejaVuSans-70" x="449.560547"/>
      <use xlink:href="#DejaVuSans-6c" x="513.037109"/>
      <use xlink:href="#DejaVuSans-65" x="540.820312"/>
      <use xlink:href="#DejaVuSans-74" x="602.34375"/>
      <use xlink:href="#DejaVuSans-65" x="641.552734"/>
     </g>
    </g>
    <g id="line2d_45">
     <path d="M 861.071875 94.294688 
L 871.071875 94.294688 
L 881.071875 94.294688 
" style="fill: none; stroke: #ff7f0e; stroke-width: 1.5; stroke-linecap: square"/>
    </g>
    <g id="text_35">
     <!-- Y2H-shared -->
     <g transform="translate(889.071875 97.794688)scale(0.1 -0.1)">
      <use xlink:href="#DejaVuSans-59"/>
      <use xlink:href="#DejaVuSans-32" x="61.083984"/>
      <use xlink:href="#DejaVuSans-48" x="124.707031"/>
      <use xlink:href="#DejaVuSans-2d" x="199.902344"/>
      <use xlink:href="#DejaVuSans-73" x="235.986328"/>
      <use xlink:href="#DejaVuSans-68" x="288.085938"/>
      <use xlink:href="#DejaVuSans-61" x="351.464844"/>
      <use xlink:href="#DejaVuSans-72" x="412.744141"/>
      <use xlink:href="#DejaVuSans-65" x="451.607422"/>
      <use xlink:href="#DejaVuSans-64" x="513.130859"/>
     </g>
    </g>
    <g id="line2d_46">
     <path d="M 861.071875 108.972812 
L 871.071875 108.972812 
L 881.071875 108.972812 
" style="fill: none; stroke: #2ca02c; stroke-width: 1.5; stroke-linecap: square"/>
    </g>
    <g id="text_36">
     <!-- COIP-complete -->
     <g transform="translate(889.071875 112.472812)scale(0.1 -0.1)">
      <use xlink:href="#DejaVuSans-43"/>
      <use xlink:href="#DejaVuSans-4f" x="69.824219"/>
      <use xlink:href="#DejaVuSans-49" x="148.535156"/>
      <use xlink:href="#DejaVuSans-50" x="178.027344"/>
      <use xlink:href="#DejaVuSans-2d" x="236.080078"/>
      <use xlink:href="#DejaVuSans-63" x="272.164062"/>
      <use xlink:href="#DejaVuSans-6f" x="327.144531"/>
      <use xlink:href="#DejaVuSans-6d" x="388.326172"/>
      <use xlink:href="#DejaVuSans-70" x="485.738281"/>
      <use xlink:href="#DejaVuSans-6c" x="549.214844"/>
      <use xlink:href="#DejaVuSans-65" x="576.998047"/>
      <use xlink:href="#DejaVuSans-74" x="638.521484"/>
      <use xlink:href="#DejaVuSans-65" x="677.730469"/>
     </g>
    </g>
    <g id="line2d_47">
     <path d="M 861.071875 123.650937 
L 871.071875 123.650937 
L 881.071875 123.650937 
" style="fill: none; stroke: #d62728; stroke-width: 1.5; stroke-linecap: square"/>
    </g>
    <g id="text_37">
     <!-- COIP-shared -->
     <g transform="translate(889.071875 127.150937)scale(0.1 -0.1)">
      <use xlink:href="#DejaVuSans-43"/>
      <use xlink:href="#DejaVuSans-4f" x="69.824219"/>
      <use xlink:href="#DejaVuSans-49" x="148.535156"/>
      <use xlink:href="#DejaVuSans-50" x="178.027344"/>
      <use xlink:href="#DejaVuSans-2d" x="236.080078"/>
      <use xlink:href="#DejaVuSans-73" x="272.164062"/>
      <use xlink:href="#DejaVuSans-68" x="324.263672"/>
      <use xlink:href="#DejaVuSans-61" x="387.642578"/>
      <use xlink:href="#DejaVuSans-72" x="448.921875"/>
      <use xlink:href="#DejaVuSans-65" x="487.785156"/>
      <use xlink:href="#DejaVuSans-64" x="549.308594"/>
     </g>
    </g>
   </g>
  </g>
 </g>
 <defs>
  <clipPath id="pbf4210302f">
   <rect x="135" y="51.84" width="380.454545" height="326.16"/>
  </clipPath>
  <clipPath id="p4ac361e987">
   <rect x="591.545455" y="51.84" width="380.454545" height="326.16"/>
  </clipPath>
 </defs>
</svg>
